HIERARCHY
ROOT root
{
	OFFSET	0	13.1	24.9
	CHANNELS 6  Xposition Yposition Zposition Xrotation Yrotation Zrotation
	JOINT spine_1
	{
		OFFSET	0	9.99999	0
		CHANNELS 3  Xrotation Yrotation Zrotation
		JOINT spine_2
		{
			OFFSET	0	112	-10
			CHANNELS 3  Xrotation Yrotation Zrotation
			JOINT spine_3
			{
				OFFSET	0	206.5	19.3
				CHANNELS 3  Xrotation Yrotation Zrotation
				JOINT spine_4
				{
					OFFSET	0	110.4	14.6
					CHANNELS 3  Xrotation Yrotation Zrotation
					JOINT neck_1
					{
						OFFSET	0	71.8	-50.3
						CHANNELS 3  Xrotation Yrotation Zrotation
						JOINT neck_2
						{
							OFFSET	0	86.2	-25.8
							CHANNELS 3  Xrotation Yrotation Zrotation
							JOINT head_ee
							{
								OFFSET	0	179.8	-8.7
								CHANNELS 3  Xrotation Yrotation Zrotation
								End Site
								{
									OFFSET	1	0	0
								}
							}
						}
					}
					JOINT left_clavicle
					{
						OFFSET	-43.2	22.4	-70.8
						CHANNELS 3  Xrotation Yrotation Zrotation
						JOINT left_shoulder
						{
							OFFSET	-93.9	-5.79999	48.7
							CHANNELS 3  Xrotation Yrotation Zrotation
							JOINT left_elbow
							{
								OFFSET	-291.4	-30.8	15.2
								CHANNELS 3  Xrotation Yrotation Zrotation
								JOINT left_lowarm_twist
								{
									OFFSET	-110.7	-3.89999	13.6
									CHANNELS 3  Xrotation Yrotation Zrotation
									JOINT left_hand
									{
										OFFSET	-110.7	-3.89999	13.6
										CHANNELS 3  Xrotation Yrotation Zrotation
										JOINT left_ee
										{
											OFFSET	-80.8	-5.10001	12.1
											CHANNELS 3  Xrotation Yrotation Zrotation
											End Site
											{
												OFFSET	1	0	0
											}
										}
									}
								}
							}
						}
					}
					JOINT right_clavicle
					{
						OFFSET	43.2	22.4	-70.8
						CHANNELS 3  Xrotation Yrotation Zrotation
						JOINT right_shoulder
						{
							OFFSET	93.9	-5.79999	48.7
							CHANNELS 3  Xrotation Yrotation Zrotation
							JOINT right_elbow
							{
								OFFSET	291.4	-30.8	15.2
								CHANNELS 3  Xrotation Yrotation Zrotation
								JOINT right_lowarm_twist
								{
									OFFSET	110.7	-3.89999	13.6
									CHANNELS 3  Xrotation Yrotation Zrotation
									JOINT right_hand
									{
										OFFSET	110.7	-3.89999	13.6
										CHANNELS 3  Xrotation Yrotation Zrotation
										JOINT right_ee
										{
											OFFSET	80.8	-5.10001	12.1
											CHANNELS 3  Xrotation Yrotation Zrotation
											End Site
											{
												OFFSET	1	0	0
											}
										}
									}
								}
							}
						}
					}
				}
			}
		}
	}
	JOINT left_hip
	{
		OFFSET	-82.8	-127.5	0.300001
		CHANNELS 3  Xrotation Yrotation Zrotation
		JOINT left_knee
		{
			OFFSET	-28.2	-396.7	2.2
			CHANNELS 3  Xrotation Yrotation Zrotation
			JOINT left_ankle
			{
				OFFSET	-11.7	-411.3	35.4
				CHANNELS 3  Xrotation Yrotation Zrotation
				JOINT left_toes
				{
					OFFSET	0	-60	-88.6
					CHANNELS 3  Xrotation Yrotation Zrotation
					JOINT left_foot_ee
					{
						OFFSET	-22.5	-16.5	-42.2
						CHANNELS 3  Xrotation Yrotation Zrotation
						End Site
						{
							OFFSET	1	0	0
						}
					}
				}
			}
		}
	}
	JOINT right_hip
	{
		OFFSET	82.8	-127.5	0.300001
		CHANNELS 3  Xrotation Yrotation Zrotation
		JOINT right_knee
		{
			OFFSET	28.2	-396.7	2.2
			CHANNELS 3  Xrotation Yrotation Zrotation
			JOINT right_ankle
			{
				OFFSET	11.7	-411.3	35.4
				CHANNELS 3  Xrotation Yrotation Zrotation
				JOINT right_toes
				{
					OFFSET	0	-60	-88.6
					CHANNELS 3  Xrotation Yrotation Zrotation
					JOINT right_foot_ee
					{
						OFFSET	22.5	-16.5	-42.2
						CHANNELS 3  Xrotation Yrotation Zrotation
						End Site
						{
							OFFSET	1	0	0
						}
					}
				}
			}
		}
	}
}
MOTION
Frames: 6
Frame Time: 0.02
3466.37642335 718.933 -1496.67154153 7.38713034218 49.5521081742 -13.6321187414 -1.84327 1.09464 4.41241 -1.83281 0.811933 4.47295 -1.75718 -0.285292 4.53696 -1.78563 0.434064 4.52517 -1.42408 12.8648 -4.47329 -0.849608 26.7181 -3.25592 -0.0 0.0 -0.0 0.527134 16.6491 2.77502 -20.722 4.11448 57.3506 4.8537 -67.3934 3.23769 -30.2982 -1.98333 3.28047 0.521089 1.47694 4.09017 -0.0 0.0 -0.0 14.2106 26.9687 -28.3725 -9.85984 43.027 -56.2855 0.73323 19.9621 -0.12904 -56.7968 4.88729 -4.99034 -0.742083 0.270353 5.07943 0.0 0.0 0.0 7.66303 27.1076 -5.11235 -28.9095 0.084286 4.38893 32.234 -9.24791 -4.26934 6.69518 -0.0 -0.0 -0.0 0.0 -0.0 -15.5626 22.7813 6.04851 -6.43759 -0.211022 -0.964928 34.4844 3.46492 4.40309 -16.2899 0.0 0.0 0.0 0.0 0.0 
3447.78873105 712.989 -1497.68439442 7.69108420237 48.4338827904 -14.0270677401 -1.92785 1.07318 4.53018 -1.91678 0.783051 4.58912 -1.84102 -0.348167 4.6423 -1.87087 0.388556 4.6391 -1.28087 13.0997 -4.22503 -0.696343 26.9317 -2.99798 -0.0 0.0 -0.0 0.961124 16.5746 3.44483 -21.6649 4.28304 58.2785 3.73317 -61.5816 2.22511 -31.1214 -2.06015 3.35287 0.807929 0.744026 5.70772 -0.0 0.0 -0.0 14.287 26.8985 -28.5607 -7.80172 43.7226 -56.849 0.783251 21.2062 -0.146627 -56.4745 4.84785 -4.97797 -1.04594 -0.110627 6.95299 0.0 0.0 0.0 9.10062 20.9917 -4.98425 -30.3478 0.0305872 4.60312 29.9004 -7.87329 -3.99575 6.41604 -0.0 -0.0 -0.0 0.0 -0.0 -16.8899 22.5211 6.53361 -7.03779 -0.22514 -1.05595 34.5427 3.67777 4.41143 -16.491 0.0 0.0 0.0 0.0 0.0 
3447.85535769 712.989 -1498.04895833 7.66629474872 48.2703678537 -13.9938932229 -1.92785 1.07318 4.53018 -1.91678 0.783051 4.58912 -1.84102 -0.348167 4.6423 -1.87087 0.388556 4.6391 -1.28087 13.0997 -4.22503 -0.696343 26.9317 -2.99798 -0.0 0.0 -0.0 0.961124 16.5746 3.44483 -21.6649 4.28304 58.2785 3.73317 -61.5816 2.22511 -31.1214 -2.06015 3.35287 0.807929 0.744026 5.70772 -0.0 0.0 -0.0 14.287 26.8985 -28.5607 -7.80172 43.7226 -56.849 0.783251 21.2062 -0.146627 -56.4745 4.84785 -4.97797 -1.04594 -0.110627 6.95299 0.0 0.0 0.0 9.10062 20.9917 -4.98425 -30.3478 0.0305872 4.60312 29.9004 -7.87329 -3.99575 6.41604 -0.0 -0.0 -0.0 0.0 -0.0 -16.8899 22.5211 6.53361 -7.03779 -0.22514 -1.05595 34.5427 3.67777 4.41143 -16.491 0.0 0.0 0.0 0.0 0.0 
3447.69795459 712.989 -1497.17784415 7.72587781183 48.6609244942 -14.0734898473 -1.92785 1.07318 4.53018 -1.91678 0.783051 4.58912 -1.84102 -0.348167 4.6423 -1.87087 0.388556 4.6391 -1.28087 13.0997 -4.22503 -0.696343 26.9317 -2.99798 -0.0 0.0 -0.0 0.961124 16.5746 3.44483 -21.6649 4.28304 58.2785 3.73317 -61.5816 2.22511 -31.1214 -2.06015 3.35287 0.807929 0.744026 5.70772 -0.0 0.0 -0.0 14.287 26.8985 -28.5607 -7.80172 43.7226 -56.849 0.783251 21.2062 -0.146627 -56.4745 4.84785 -4.97797 -1.04594 -0.110627 6.95299 0.0 0.0 0.0 9.10062 20.9917 -4.98425 -30.3478 0.0305872 4.60312 29.9004 -7.87329 -3.99575 6.41604 -0.0 -0.0 -0.0 0.0 -0.0 -16.8899 22.5211 6.53361 -7.03779 -0.22514 -1.05595 34.5427 3.67777 4.41143 -16.491 0.0 0.0 0.0 0.0 0.0 
3440.78148323 725.083 -1496.6397566 7.83144408913 51.0937177254 -14.1056494229 -1.85183 1.09167 4.43877 -1.84124 0.807302 4.49907 -1.76545 -0.296744 4.56116 -1.79422 0.426566 4.55088 -1.17413 13.2349 -4.10707 -0.579693 27.071 -2.88257 -0.0 0.0 -0.0 0.964924 17.0557 3.49328 -22.8561 4.63776 59.1494 3.10404 -56.9502 1.6839 -31.7292 -2.11754 3.40562 1.00276 0.322034 6.84363 -0.0 0.0 -0.0 14.4828 26.9162 -29.0183 -5.23322 44.6226 -58.035 0.837819 22.5398 -0.166958 -56.1926 4.8134 -4.96696 -1.2684 -0.367167 8.33687 0.0 0.0 0.0 10.4457 16.1181 -4.77279 -31.3524 -0.0101074 4.75192 28.0345 -6.95318 -3.77504 6.15746 -0.0 -0.0 -0.0 0.0 -0.0 -17.8696 22.3242 6.89481 -8.35685 -0.252811 -1.25647 34.5836 3.82618 4.41731 -16.6316 0.0 0.0 0.0 0.0 0.0 
3437.28436245 715.875 -1496.43419806 6.86667220689 54.4803244037 -13.6358235121 -1.81275 0.976653 4.43396 -1.80208 0.692821 4.48698 -1.7359 -0.402982 4.52216 -1.76429 0.315512 4.52909 -2.01195 13.179 -3.87013 -1.50706 26.8697 -2.42977 -0.0 0.0 -0.0 0.71718 17.8265 3.18245 -24.1808 5.23299 59.4627 2.55583 -51.6885 1.23813 -32.2142 -2.16373 3.44729 1.11913 -0.157657 7.4321 -0.0 0.0 -0.0 14.53 26.936 -29.1268 -1.86915 45.4707 -57.4303 0.875467 23.4452 -0.181664 -54.6556 4.62658 -4.90397 -1.63039 -0.574321 10.6919 0.0 0.0 0.0 11.303 13.4601 -4.46063 -26.0146 0.175969 3.95415 19.5509 -5.89284 -2.74558 4.72206 -0.0 -0.0 -0.0 0.0 -0.0 -16.2752 21.0174 5.52503 -8.33815 -0.252451 -1.25362 31.7612 3.33837 4.1271 -17.3768 0.0 0.0 0.0 0.0 0.0 
